<svg width="50" height="50" viewBox="0 0 50 50" fill="none" xmlns="http://www.w3.org/2000/svg">
<g clip-path="url(#clip0_5_472)">
<path d="M42.3271 9.10387C39.0855 7.61587 35.6645 6.55479 32.1498 5.9472C32.1179 5.94124 32.0849 5.94551 32.0555 5.95938C32.0262 5.97326 32.0019 5.99604 31.9863 6.02449C31.5467 6.80637 31.0598 7.82616 30.719 8.62762C26.8758 8.0522 23.0523 8.0522 19.2881 8.62762C18.9473 7.80824 18.4427 6.80637 18.0013 6.02449C17.9849 5.99669 17.9606 5.97447 17.9314 5.96071C17.9022 5.94696 17.8696 5.94233 17.8377 5.94741C14.3227 6.55359 10.9015 7.61458 7.66022 9.10366C7.63249 9.11551 7.60912 9.13567 7.59334 9.16137C1.11126 18.8455 -0.664575 28.2916 0.206675 37.6205C0.209138 37.6434 0.216161 37.6655 0.227326 37.6856C0.238491 37.7056 0.253572 37.7233 0.271675 37.7374C4.54834 40.8782 8.69105 42.7849 12.7569 44.0487C12.7885 44.0581 12.8222 44.0576 12.8536 44.0474C12.8849 44.0371 12.9124 44.0175 12.9323 43.9912C13.894 42.6778 14.7513 41.2928 15.4865 39.8366C15.4966 39.8166 15.5023 39.7948 15.5034 39.7724C15.5044 39.7501 15.5008 39.7278 15.4926 39.707C15.4844 39.6862 15.4719 39.6674 15.4559 39.6518C15.4399 39.6361 15.4208 39.6241 15.3998 39.6164C14.0398 39.1005 12.745 38.4716 11.4994 37.7574C11.4767 37.7441 11.4576 37.7253 11.4438 37.7029C11.4301 37.6804 11.4221 37.6549 11.4205 37.6286C11.4189 37.6023 11.4239 37.576 11.4349 37.5521C11.4459 37.5282 11.4626 37.5073 11.4836 37.4914C11.7456 37.2949 12.0079 37.0907 12.2581 36.8843C12.2804 36.8659 12.3073 36.8542 12.3359 36.8503C12.3644 36.8465 12.3935 36.8506 12.4198 36.8624C20.6027 40.5984 29.4615 40.5984 37.5477 36.8624C37.5741 36.8499 37.6034 36.8451 37.6324 36.8486C37.6613 36.8521 37.6887 36.8637 37.7113 36.8822C37.9617 37.0884 38.2238 37.2949 38.4879 37.4914C38.509 37.5071 38.5258 37.5279 38.5369 37.5517C38.5481 37.5755 38.5532 37.6017 38.5518 37.6279C38.5505 37.6542 38.5427 37.6797 38.5291 37.7023C38.5156 37.7248 38.4967 37.7437 38.4742 37.7572C37.2281 38.485 35.9228 39.1062 34.5721 39.6143C34.5511 39.6223 34.5321 39.6347 34.5162 39.6505C34.5003 39.6664 34.488 39.6855 34.48 39.7065C34.472 39.7274 34.4685 39.7499 34.4698 39.7723C34.471 39.7947 34.477 39.8166 34.4873 39.8366C35.2381 41.2907 36.0954 42.6757 37.0394 43.9891C37.0587 44.0162 37.086 44.0365 37.1175 44.0472C37.149 44.0579 37.183 44.0584 37.2148 44.0487C41.3002 42.7847 45.4429 40.878 49.7196 37.7374C49.738 37.724 49.7534 37.7068 49.7646 37.6869C49.7758 37.6671 49.7827 37.6451 49.7848 37.6224C50.8273 26.837 48.0386 17.4684 42.3921 9.16324C42.3782 9.13626 42.3552 9.11533 42.3271 9.10387ZM16.7083 31.9401C14.2448 31.9401 12.2148 29.6782 12.2148 26.9005C12.2148 24.123 14.2054 21.8612 16.7086 21.8612C19.2311 21.8612 21.2413 24.1428 21.2019 26.9007C21.2019 29.6782 19.2113 31.9401 16.7083 31.9401ZM33.3225 31.9401C30.859 31.9401 28.829 29.6782 28.829 26.9005C28.829 24.123 30.8194 21.8612 33.3225 21.8612C35.845 21.8612 37.8552 24.1428 37.8158 26.9007C37.8158 29.6782 35.845 31.9401 33.3225 31.9401Z" fill="#5865F2"/>
</g>
<defs>
<clipPath id="clip0_5_472">
<rect width="50" height="50" fill="white"/>
</clipPath>
</defs>
</svg>
