<svg width="50" height="50" viewBox="0 0 50 50" fill="none" xmlns="http://www.w3.org/2000/svg">
<path d="M13.5208 39.6667H13.0417L10.6875 37.2917V36.8125L14.2917 33.25H16.7917L17.1042 33.5625V36.0625L13.5417 39.6667H13.5208ZM10.6875 13.1458V12.7083L13.0417 10.3542H13.5208L17.0833 13.9167V16.4167L16.7708 16.7292H14.2708L10.6875 13.1458ZM31.4375 32.0833H28L27.7083 31.8125V23.8333C27.7083 22.4167 27.1458 21.3333 25.4167 21.2708C24.5417 21.2708 23.5417 21.2708 22.4375 21.3125L22.2917 21.4792V31.8125L22 32.1042H18.5417L18.2708 31.8125V18.1875L18.5417 17.8958H26.25C26.9631 17.8931 27.6697 18.0312 28.3293 18.3022C28.9889 18.5731 29.5884 18.9717 30.0936 19.475C30.5988 19.9782 30.9997 20.5763 31.2732 21.2348C31.5467 21.8933 31.6875 22.5994 31.6875 23.3125V31.8125L31.4167 32.1042L31.4375 32.0833ZM14 27H0.291667L0 26.7083V23.2917L0.291667 23H14L14.2917 23.2917V26.7083L14 27ZM49.7083 27H36L35.7083 26.7083V23.2917L36 23H49.7083L50 23.2917V26.7083L49.7083 27ZM23.0208 13.6458V3.41667L23.3125 3.125H26.75L27.0417 3.41667V13.625L26.75 13.9167H23.3125L23.0208 13.6458ZM23.0208 46.5833V36.375L23.3125 36.0833H26.75L27.0417 36.3542V46.5833L26.75 46.875H23.3125L23.0208 46.5833Z" fill="#00C7B7"/>
</svg>
