<svg width="50" height="50" viewBox="0 0 50 50" fill="none" xmlns="http://www.w3.org/2000/svg">
<path d="M14.437 28.5155C14.7786 28.3201 15.2182 28.4422 15.4134 28.7922L15.5436 29.012C16.5447 30.786 17.5863 32.4705 18.6686 34.0657C19.9463 35.9455 21.3868 37.8499 22.9901 39.7785C23.1121 39.9235 23.172 40.1108 23.1568 40.2998C23.1415 40.4887 23.0524 40.664 22.9086 40.7876L22.754 40.926C17.4561 45.5566 14.022 46.476 12.4349 43.701C10.8807 40.983 11.4422 36.0514 14.1195 28.8899C14.1779 28.7316 14.2903 28.599 14.437 28.5155ZM36.9793 33.9599C37.3618 33.8947 37.728 34.1391 37.8011 34.5214L37.842 34.733C39.1522 41.577 38.2326 45.0032 35.083 45.0032C31.9988 45.0032 28.0845 42.0816 23.3155 36.2466C23.2084 36.1164 23.1533 35.9512 23.1609 35.7828C23.1609 35.3922 23.4863 35.0747 23.877 35.0747H24.1293C26.0817 35.0901 28.0339 35.0222 29.9805 34.8714C32.2103 34.6922 34.5459 34.3912 36.9793 33.9599ZM38.7938 19.4253C38.8605 19.2455 38.9949 19.0988 39.1683 19.0166C39.3417 18.9345 39.5403 18.9234 39.7218 18.9857L39.9334 19.0591C46.7286 21.3703 49.3166 23.9174 47.6807 26.6926C46.0857 29.4107 41.447 31.3885 33.7566 32.6253C33.5857 32.6497 33.4065 32.617 33.2601 32.5274C32.9101 32.3241 32.7882 31.8847 32.9997 31.5347L33.1299 31.3151C34.1799 29.5572 35.1236 27.8076 35.9782 26.0578C36.9711 23.9989 37.9149 21.7853 38.7938 19.4253ZM16.2438 17.3745C16.4147 17.3501 16.5938 17.3828 16.7403 17.4724C17.0903 17.6757 17.2122 18.1151 17.0007 18.4651L16.8705 18.6847C15.8477 20.3964 14.8974 22.1504 14.0222 23.942C13.0293 26.001 12.0853 28.2145 11.2063 30.5745C11.1396 30.7543 11.0053 30.901 10.8319 30.9831C10.6586 31.0652 10.46 31.0763 10.2786 31.0141L10.067 30.9407C3.27176 28.6295 0.683839 26.0824 2.31967 23.3072C3.91467 20.5891 8.55342 18.6114 16.2438 17.3745ZM27.2463 9.07387C32.5443 4.44325 35.9784 3.52387 37.5655 6.29887C39.1197 9.01679 38.5582 13.9485 35.8809 21.1099C35.8225 21.2682 35.7101 21.4008 35.5634 21.4843C35.2218 21.6797 34.7822 21.5576 34.587 21.2076L34.4568 20.9878C33.4557 19.2139 32.414 17.5293 31.3318 15.9341C30.054 14.0543 28.6136 12.1499 27.0103 10.2214C26.8883 10.0763 26.8284 9.88899 26.8436 9.70004C26.8589 9.5111 26.948 9.3358 27.0918 9.2122L27.2463 9.07387ZM15.1776 4.73637C18.262 4.73637 22.1845 7.65783 26.9453 13.4926C27.05 13.6215 27.1075 13.7824 27.108 13.9485C27.0999 14.3472 26.7826 14.6647 26.3838 14.6647L26.1397 14.6564C24.1872 14.6476 22.2352 14.7182 20.2884 14.868C18.0505 15.0472 15.7149 15.3482 13.2815 15.7795C13.0973 15.8109 12.908 15.7689 12.7544 15.6624C12.6007 15.5559 12.4949 15.3935 12.4597 15.2099L12.4188 15.0064C11.1084 8.16241 12.028 4.73637 15.1776 4.73637ZM21.159 16.8455H28.8413C29.0735 16.8456 29.3016 16.9065 29.503 17.0222C29.7043 17.1378 29.8718 17.3042 29.9888 17.5047L33.8382 24.2105C33.9503 24.4107 34.0091 24.6363 34.0091 24.8656C34.0091 25.095 33.9503 25.3206 33.8382 25.5207L29.9888 32.2347C29.8718 32.4352 29.7043 32.6016 29.503 32.7172C29.3018 32.8328 29.0737 32.8938 28.8415 32.8939H21.1593C20.6872 32.8939 20.2478 32.6416 20.0197 32.2347L16.1624 25.5207C16.0503 25.3206 15.9914 25.095 15.9914 24.8655C15.9914 24.6361 16.0503 24.4105 16.1624 24.2103L20.0199 17.5047C20.2476 17.0978 20.6872 16.8455 21.159 16.8455ZM27.8893 18.4976C28.1214 18.4977 28.3495 18.5586 28.5509 18.6742C28.7522 18.7899 28.9197 18.9563 29.0368 19.1568L31.9338 24.2105C32.0459 24.4107 32.1047 24.6363 32.1047 24.8656C32.1047 25.095 32.0459 25.3206 31.9338 25.5207L29.0368 30.5826C28.9197 30.7831 28.7522 30.9495 28.5509 31.0652C28.3495 31.1808 28.1214 31.2417 27.8893 31.2418H22.1113C21.6393 31.2418 21.1999 30.9895 20.972 30.5826L18.0668 25.5207C17.9547 25.3206 17.8958 25.095 17.8958 24.8655C17.8958 24.6361 17.9547 24.4105 18.0668 24.2103L20.972 19.1568C21.1999 18.7499 21.6393 18.4976 22.1113 18.4976H27.8893ZM26.8638 20.3043H23.1368C22.6647 20.3043 22.2334 20.5485 21.9972 20.9635L20.1257 24.2105C20.0137 24.4107 19.9548 24.6363 19.9548 24.8656C19.9548 25.095 20.0137 25.3206 20.1257 25.5207L21.9974 28.776C22.1127 28.9762 22.2787 29.1425 22.4787 29.2582C22.6787 29.3739 22.9057 29.4349 23.1368 29.4351H26.8638C27.0949 29.435 27.3219 29.374 27.522 29.2583C27.722 29.1426 27.8881 28.9762 28.0034 28.776L29.8749 25.5207C29.987 25.3206 30.0458 25.095 30.0458 24.8655C30.0458 24.6361 29.987 24.4105 29.8749 24.2103L28.0032 20.9635C27.7672 20.5485 27.3359 20.3043 26.8638 20.3043ZM25.8711 22.0295C26.343 22.0295 26.7826 22.2818 27.0103 22.6887L27.8895 24.2105C28.1253 24.6174 28.1253 25.122 27.8895 25.5207L27.0103 27.0507C26.7826 27.4576 26.343 27.7099 25.8711 27.7099H24.1295C23.8984 27.7097 23.6715 27.6487 23.4716 27.533C23.2716 27.4173 23.1056 27.2509 22.9903 27.0507L22.1111 25.5207C21.8753 25.122 21.8753 24.6174 22.1111 24.2103L22.9903 22.6887C23.1056 22.4885 23.2716 22.3222 23.4716 22.2064C23.6715 22.0907 23.8984 22.0297 24.1295 22.0295H25.8711ZM25.0003 23.7303C24.8007 23.7309 24.6047 23.7838 24.4319 23.8838C24.2591 23.9838 24.1155 24.1273 24.0155 24.3001C23.8122 24.6501 23.8122 25.0814 24.0155 25.4393C24.116 25.6111 24.2598 25.7534 24.4327 25.852C24.6055 25.9506 24.8013 26.002 25.0003 26.001C25.1993 26.002 25.395 25.9506 25.5679 25.852C25.7408 25.7534 25.8846 25.6111 25.9851 25.4393C26.1884 25.0814 26.1884 24.6499 25.9851 24.3001C25.8851 24.1273 25.7415 23.9837 25.5686 23.8838C25.3958 23.7838 25.2 23.7309 25.0003 23.7303ZM15.788 24.8697H17.8307ZM39.5428 16.1457C40.3565 12.1989 40.5355 9.1795 40.0066 6.98241C39.6974 5.672 39.1278 4.61408 38.257 3.84116C37.3374 3.0272 36.1736 2.62866 34.8716 2.62866C32.7149 2.62866 30.4526 3.61325 28.0355 5.47679C27.0509 6.23366 26.0255 7.15325 24.9676 8.21929C24.878 8.11345 24.7884 8.00783 24.6828 7.91825C21.6715 5.24075 19.1407 3.58075 16.9759 2.93783C15.6903 2.55533 14.4857 2.52262 13.3872 2.88887C12.2234 3.2795 11.2955 4.08512 10.6447 5.21637C9.57051 7.07991 9.28551 9.53762 9.68426 12.5651C9.84717 13.7939 10.132 15.1366 10.5226 16.5932C10.3705 16.6111 10.2205 16.6439 10.0749 16.6912C6.26676 17.9603 3.56467 19.3112 1.92884 20.8655C0.960298 21.7851 0.325714 22.8187 0.0896726 23.9499C-0.146369 25.1543 0.0896726 26.3587 0.740714 27.4899C1.81488 29.3535 3.79238 30.8185 6.60821 31.9822C7.73946 32.446 9.01697 32.8691 10.4493 33.2516C10.3823 33.4027 10.3331 33.5612 10.3028 33.7237C9.48905 37.6624 9.31009 40.6899 9.83905 42.8789C10.1482 44.1893 10.7259 45.2553 11.5886 46.0201C12.5082 46.8341 13.672 47.2326 14.974 47.2326C17.1307 47.2326 19.3928 46.248 21.8101 44.3926C22.8028 43.6195 23.8363 42.6918 24.9105 41.6093C25.0259 41.783 25.1626 41.9416 25.3174 42.0814C28.3286 44.7589 30.8595 46.4189 33.0243 47.0618C34.3101 47.4443 35.5145 47.477 36.613 47.1107C37.7768 46.7201 38.7047 45.9145 39.3555 44.7832C40.4299 42.9197 40.7147 40.462 40.3159 37.4347C40.1451 36.157 39.852 34.7653 39.4288 33.2435C39.5972 33.2275 39.7635 33.1948 39.9253 33.146C43.7336 31.8764 46.4357 30.5255 48.0713 28.971C49.0399 28.0516 49.6747 27.018 49.9105 25.8868C50.1466 24.6824 49.9105 23.4778 49.2595 22.3468C48.1853 20.483 46.2078 19.0182 43.392 17.8545C42.2282 17.3745 40.9018 16.9349 39.4207 16.5524C39.4773 16.4221 39.5183 16.2857 39.5428 16.1457Z" fill="#FF4154"/>
</svg>
