<svg width="50" height="50" viewBox="0 0 50 50" fill="none" xmlns="http://www.w3.org/2000/svg">
<g clip-path="url(#clip0_5_450)">
<path d="M35.6041 18.4626C35.3525 17.1488 34.6886 15.9495 33.7088 15.039C32.7291 14.1286 31.4845 13.5545 30.1562 13.4001L29.6458 13.3376C28.8109 13.2318 28.0432 12.8256 27.4861 12.1948C26.929 11.5641 26.6206 10.7521 26.6187 9.91054V8.1272C27.517 7.7542 28.259 7.08269 28.7196 6.22604C29.1802 5.36939 29.3312 4.38005 29.1469 3.42503C28.9627 2.47001 28.4546 1.60779 27.7085 0.983913C26.9623 0.360037 26.0237 0.0127153 25.0512 0.000573604C24.0786 -0.0115681 23.1316 0.312214 22.3701 0.917267C21.6086 1.52232 21.0792 2.37159 20.8712 3.32171C20.6632 4.27184 20.7893 5.26463 21.2284 6.13252C21.6675 7.0004 22.3925 7.69022 23.2812 8.08553V9.90637C23.2824 11.5617 23.8872 13.1598 24.9822 14.4009C26.0773 15.6421 27.5873 16.4411 29.2291 16.648L29.7395 16.7147C31.3312 16.9147 32.1229 18.0897 32.3354 19.121C32.5437 20.1522 32.2729 21.5439 30.8812 22.3501C30.2083 22.7412 29.4583 22.9808 28.6833 23.0522L21.0166 23.773C19.7612 23.8918 18.5461 24.2798 17.4541 24.9105C16.2889 25.5692 15.364 26.5822 14.814 27.8025C14.264 29.0228 14.1175 30.3867 14.3958 31.696C14.6474 33.0098 15.3113 34.2091 16.2911 35.1195C17.2709 36.03 18.5154 36.6041 19.8437 36.7585L20.3541 36.8251C21.1886 36.9309 21.9561 37.3368 22.5131 37.9671C23.0702 38.5974 23.3788 39.4089 23.3812 40.2501V41.8689C22.4827 42.2442 21.7412 42.918 21.2819 43.7766C20.8227 44.6353 20.6738 45.6261 20.8604 46.5818C21.047 47.5375 21.5577 48.3995 22.3062 49.0223C23.0547 49.6451 23.9952 49.9906 24.9689 50.0003C25.9426 50.01 26.8898 49.6834 27.6507 49.0757C28.4115 48.468 28.9393 47.6163 29.1449 46.6645C29.3506 45.7127 29.2215 44.7192 28.7795 43.8515C28.3374 42.9839 27.6096 42.2954 26.7187 41.9022V40.2501C26.7174 38.5944 26.1123 36.9961 25.0169 35.7549C23.9215 34.5137 22.411 33.715 20.7687 33.5085L20.2604 33.4418C18.6687 33.2418 17.875 32.0668 17.6645 31.0355C17.4562 30.0043 17.727 28.6126 19.1166 27.8064C19.7908 27.4147 20.5423 27.1751 21.3187 27.1043L28.9854 26.3855C30.2408 26.2668 31.4559 25.8788 32.5479 25.248C33.712 24.5882 34.6358 23.5746 35.1854 22.3541C35.7349 21.1337 35.8816 19.7699 35.6041 18.4605V18.4626ZM30.077 28.271C29.776 28.3243 29.473 28.366 29.1687 28.396L25.9541 28.7022L29.975 33.1168C31.1902 34.4494 31.8634 36.1882 31.8625 37.9918H35.2083C35.2095 35.3555 34.2249 32.8141 32.4479 30.8668L30.077 28.271ZM19.6541 21.7918C20.0297 21.7138 20.4095 21.6581 20.7916 21.6251L23.7645 21.3418L19.727 16.9168C18.5125 15.5838 17.8401 13.8451 17.8416 12.0418H14.5062C14.5062 14.6814 15.4854 17.2147 17.2645 19.1668L19.6541 21.7918Z" fill="#3578E5"/>
</g>
<defs>
<clipPath id="clip0_5_450">
<rect width="50" height="50" fill="white"/>
</clipPath>
</defs>
</svg>
