<svg width="50" height="50" viewBox="0 0 50 50" fill="none" xmlns="http://www.w3.org/2000/svg">
<g clip-path="url(#clip0_5_438)">
<path d="M25.0022 10C18.3355 10 14.1689 13.3333 12.5022 20C15.0022 16.6667 17.9189 15.4167 21.2522 16.25C23.1543 16.725 24.5126 18.1042 26.0189 19.6333C28.4709 22.1208 31.3064 25 37.5022 25C44.1689 25 48.3355 21.6667 50.0022 15C47.5022 18.3333 44.5855 19.5833 41.2522 18.75C39.3501 18.275 37.9918 16.8958 36.4855 15.3667C34.0355 12.8792 31.2001 10 25.0022 10ZM12.5022 25C5.83553 25 1.66886 28.3333 0.00219727 35C2.5022 31.6667 5.41886 30.4167 8.7522 31.25C10.6543 31.725 12.0126 33.1042 13.5189 34.6333C15.9709 37.1208 18.8064 40 25.0022 40C31.6689 40 35.8355 36.6667 37.5022 30C35.0022 33.3333 32.0855 34.5833 28.7522 33.75C26.8501 33.275 25.4918 31.8958 23.9855 30.3667C21.5355 27.8792 18.7001 25 12.5022 25Z" fill="#06B6D4"/>
</g>
<defs>
<clipPath id="clip0_5_438">
<rect width="50" height="50" fill="white"/>
</clipPath>
</defs>
</svg>
